<?xml version="1.0" standalone="no"?>
<!DOCTYPE svg PUBLIC "-//W3C//DTD SVG 20010904//EN"
 "http://www.w3.org/TR/2001/REC-SVG-20010904/DTD/svg10.dtd">
<svg version="1.0" xmlns="http://www.w3.org/2000/svg"
 width="1024.000000pt" height="1024.000000pt" viewBox="0 0 1024.000000 1024.000000"
 preserveAspectRatio="xMidYMid meet">
<metadata>
Created by potrace 1.11, written by Peter Selinger 2001-2013
</metadata>
<g transform="translate(0.000000,1024.000000) scale(0.100000,-0.100000)"
fill="#000000" stroke="none">
<path d="M5007 9603 c-6 -5 -150 -13 -299 -17 -27 0 -48 -3 -48 -6 0 -4 -10
-6 -22 -6 -30 -1 -144 -13 -188 -19 -19 -3 -46 -7 -60 -9 -72 -11 -181 -30
-230 -41 -14 -4 -36 -8 -50 -11 -14 -3 -63 -14 -110 -25 -47 -12 -93 -22 -103
-24 -9 -2 -21 -6 -25 -9 -5 -3 -24 -8 -43 -11 -37 -7 -401 -126 -453 -149 -17
-7 -47 -21 -68 -30 -20 -9 -38 -16 -41 -16 -14 0 -427 -199 -437 -211 -3 -3
-30 -19 -60 -36 -30 -16 -75 -43 -100 -58 -25 -16 -48 -28 -52 -27 -5 1 -8 -2
-8 -8 0 -5 -6 -10 -14 -10 -8 0 -16 -3 -18 -7 -4 -11 -65 -53 -76 -53 -4 0
-17 -8 -28 -18 -10 -9 -32 -26 -49 -36 -16 -11 -34 -23 -40 -28 -5 -4 -37 -28
-70 -53 -33 -24 -71 -53 -85 -64 -14 -11 -38 -31 -54 -43 -30 -25 -41 -34
-126 -106 -75 -64 -345 -335 -400 -401 -25 -29 -53 -63 -63 -75 -10 -11 -31
-36 -45 -55 -15 -19 -39 -48 -53 -65 -14 -17 -52 -69 -85 -116 -32 -47 -62
-89 -67 -95 -13 -16 -101 -156 -123 -195 -10 -19 -22 -37 -25 -40 -3 -3 -12
-18 -21 -35 -8 -16 -47 -92 -86 -168 -40 -75 -72 -141 -72 -145 -1 -4 -10 -27
-21 -52 -25 -54 -80 -191 -84 -205 -1 -5 -7 -23 -13 -38 -7 -15 -15 -40 -18
-55 -4 -15 -10 -31 -14 -37 -6 -9 -13 -28 -27 -85 -10 -39 -12 -45 -13 -45 -1
0 -3 -7 -5 -15 -2 -8 -6 -24 -9 -35 -27 -98 -54 -211 -61 -255 -6 -38 -15 -82
-21 -110 -4 -14 -7 -38 -9 -55 -1 -16 -5 -48 -9 -71 -22 -139 -28 -253 -28
-519 0 -226 4 -351 16 -420 2 -17 8 -52 11 -80 8 -62 13 -93 20 -125 3 -14 7
-40 10 -59 2 -18 7 -41 9 -50 3 -9 8 -31 11 -48 6 -40 41 -182 49 -203 3 -8 7
-26 10 -40 9 -52 107 -333 151 -435 172 -396 348 -684 611 -1005 120 -146 338
-371 448 -465 26 -22 55 -47 64 -56 32 -31 237 -192 277 -218 22 -14 42 -28
45 -31 13 -14 111 -80 119 -80 5 0 14 -6 20 -14 7 -8 31 -24 54 -36 23 -12 44
-25 47 -29 7 -9 82 -51 103 -58 9 -3 17 -9 17 -13 0 -4 15 -13 33 -21 17 -7
34 -15 37 -18 25 -29 555 -271 624 -286 6 -1 22 -6 36 -12 14 -5 57 -20 95
-33 39 -12 77 -25 85 -28 8 -3 20 -6 25 -7 6 -2 35 -10 65 -20 58 -17 229 -62
264 -69 12 -2 28 -7 36 -10 8 -3 29 -7 45 -10 17 -3 44 -8 60 -11 17 -2 41 -7
55 -9 14 -3 25 -5 25 -6 0 -1 9 -3 20 -4 11 -2 54 -8 95 -15 41 -6 93 -14 115
-17 22 -2 58 -7 80 -10 231 -32 751 -37 1010 -10 28 3 73 8 101 11 48 4 96 11
153 20 41 7 115 18 136 21 11 1 20 3 20 4 0 1 11 3 25 6 14 2 59 11 100 20 41
9 84 17 95 19 11 2 31 7 45 13 14 5 27 9 30 9 11 -1 119 27 178 45 34 11 70
21 80 23 9 2 18 4 20 5 1 2 5 3 10 5 4 1 14 4 22 8 37 15 154 47 172 47 44 0
88 -34 154 -118 66 -84 337 -362 353 -362 4 0 23 -14 42 -31 19 -17 48 -41 65
-53 125 -86 187 -126 194 -126 5 0 10 -4 12 -8 12 -32 526 -272 581 -272 8 0
17 -3 21 -7 4 -5 11 -8 14 -8 4 -1 39 -10 77 -22 39 -12 81 -24 95 -27 14 -2
36 -8 50 -13 14 -6 44 -9 67 -8 33 1 48 7 66 29 13 15 22 37 21 49 -1 12 -3
27 -3 34 -1 6 -7 18 -13 25 -19 19 -88 122 -126 187 -46 77 -132 262 -132 282
0 4 -5 20 -12 36 -14 34 -14 35 -33 103 -8 30 -18 69 -21 85 -11 64 -14 81
-19 105 -24 110 -24 412 0 530 3 14 8 40 11 59 13 81 22 114 56 216 16 50 36
104 43 122 8 17 15 36 15 42 0 6 4 11 8 11 4 0 8 10 9 22 1 11 6 24 11 27 6 3
17 22 25 41 17 36 58 111 67 120 3 3 27 38 54 77 27 40 53 73 59 73 6 0 7 3 4
6 -4 4 1 14 11 23 9 9 29 32 44 53 15 20 33 42 40 50 21 22 92 110 108 134 8
13 48 68 88 124 39 56 72 104 72 107 0 3 11 21 25 39 14 18 25 37 25 42 0 6 4
12 8 14 17 6 212 371 212 396 0 6 5 12 10 12 6 0 9 3 8 8 -1 4 6 25 16 47 10
22 33 81 53 130 19 50 39 99 44 110 5 11 11 31 14 44 2 12 9 29 16 37 6 8 9
14 5 14 -3 0 0 17 8 38 17 46 43 129 50 162 3 14 17 70 31 125 14 55 28 114
30 130 2 17 8 55 14 85 16 76 22 110 26 145 26 228 27 239 28 505 0 262 -5
360 -28 520 -2 14 -7 48 -11 75 -6 48 -8 59 -19 108 -3 12 -8 38 -11 57 -4 19
-18 80 -31 135 -14 55 -26 110 -27 123 0 12 -4 22 -8 22 -5 0 -8 7 -8 15 0 8
-12 49 -26 92 -14 43 -27 83 -28 88 -2 6 -6 19 -10 30 -5 11 -17 45 -28 75
-24 65 -31 83 -52 132 -9 20 -16 39 -16 42 0 9 -153 320 -160 326 -3 3 -13 21
-22 40 -9 19 -42 75 -72 124 -31 48 -56 92 -56 96 0 5 -3 10 -7 12 -5 2 -30
37 -58 78 -27 41 -53 77 -56 80 -3 3 -32 41 -64 85 -32 44 -61 82 -64 85 -4 3
-16 17 -27 32 -80 104 -377 410 -489 505 -28 23 -60 50 -71 60 -12 10 -36 29
-54 43 -18 14 -38 30 -44 35 -6 6 -38 30 -71 55 -33 25 -62 47 -65 51 -6 7
-279 189 -284 189 -2 0 -44 25 -94 55 -50 30 -95 55 -99 55 -5 0 -19 9 -33 20
-14 11 -32 20 -42 20 -9 0 -18 3 -20 8 -5 12 -320 162 -341 162 -7 0 -17 4
-23 9 -12 12 -277 111 -296 111 -8 0 -18 3 -22 8 -4 4 -11 7 -14 8 -4 0 -14 3
-22 7 -41 16 -303 87 -375 102 -11 2 -35 8 -53 14 -18 5 -35 10 -37 10 -3 0
-18 2 -33 5 -27 5 -90 16 -128 21 -11 2 -45 8 -75 14 -66 13 -124 20 -274 35
-117 12 -191 17 -295 21 -58 1 -109 4 -115 5 -5 1 -12 2 -15 1 -14 -5 -158 -3
-167 2 -6 4 -13 4 -16 0z m190 -1931 c17 -12 35 -34 41 -49 18 -45 123 -347
127 -363 5 -18 43 -127 55 -155 4 -11 27 -76 50 -145 24 -69 53 -153 66 -187
13 -35 21 -63 17 -63 -3 0 -1 -6 4 -12 6 -7 24 -56 42 -108 18 -52 35 -102 38
-110 3 -8 8 -22 9 -30 2 -8 19 -55 37 -105 l34 -90 94 -2 c52 -1 220 -4 374
-7 154 -4 393 -9 530 -12 460 -9 469 -9 503 -30 31 -18 63 -69 64 -102 1 -61
-17 -85 -134 -172 -55 -41 -106 -80 -112 -85 -6 -6 -27 -22 -46 -35 -19 -13
-37 -27 -40 -30 -3 -3 -50 -39 -105 -80 -55 -41 -102 -77 -105 -80 -3 -3 -50
-39 -105 -80 -55 -41 -102 -77 -105 -80 -3 -3 -21 -17 -40 -30 -19 -14 -58
-43 -85 -65 -28 -22 -64 -50 -80 -62 -17 -12 -64 -47 -105 -78 -41 -32 -88
-67 -103 -79 -33 -25 -33 -27 12 -171 18 -55 34 -108 36 -118 5 -21 49 -167
76 -253 11 -33 21 -70 24 -82 2 -11 9 -30 15 -41 6 -12 8 -21 5 -21 -3 0 1
-16 9 -35 8 -19 13 -35 11 -35 -3 0 2 -17 9 -37 8 -21 28 -83 44 -138 83 -278
112 -373 120 -395 3 -8 7 -19 7 -25 1 -5 5 -17 8 -25 21 -55 11 -119 -25 -153
-27 -26 -89 -45 -120 -37 -28 8 -251 156 -256 171 -2 5 -8 9 -13 9 -5 0 -41
23 -81 52 -40 28 -122 85 -183 126 -60 42 -111 79 -113 84 -2 4 -10 8 -18 8
-8 0 -14 5 -14 10 0 6 -7 10 -15 10 -8 0 -15 5 -15 10 0 6 -4 10 -10 10 -5 0
-18 7 -27 15 -10 8 -76 55 -148 104 -71 50 -134 94 -140 98 -5 4 -30 22 -55
38 -25 17 -54 38 -64 47 -11 10 -26 18 -33 18 -7 0 -13 4 -13 9 0 25 -36 19
-84 -14 -65 -45 -266 -185 -297 -207 -29 -21 -329 -229 -417 -290 -35 -23 -70
-49 -77 -55 -8 -7 -18 -13 -24 -13 -6 0 -11 -3 -11 -8 0 -4 -15 -16 -33 -25
-19 -10 -46 -29 -60 -43 -15 -14 -27 -22 -27 -18 0 4 -10 -2 -22 -13 -13 -11
-61 -46 -108 -76 -127 -83 -168 -80 -248 18 -10 13 -7 99 4 117 5 7 10 19 11
26 7 29 12 47 13 50 2 1 3 5 4 10 1 4 10 34 20 67 10 33 19 65 21 70 1 6 5 17
8 25 7 18 49 161 51 175 1 6 4 15 8 20 3 6 16 46 28 90 24 87 49 171 57 195 7
17 6 16 28 90 9 30 18 63 20 72 2 9 9 26 15 38 6 11 8 25 5 30 -3 6 -1 10 6
10 7 0 10 3 6 6 -3 3 -1 18 5 33 5 14 11 33 13 41 7 30 84 280 89 288 6 10 0
16 -154 132 -69 52 -129 98 -135 102 -5 5 -28 22 -50 39 -22 16 -47 35 -55 42
-9 7 -52 39 -95 72 -44 33 -85 64 -92 70 -6 5 -45 35 -87 65 -42 30 -76 58
-76 63 0 4 -5 7 -10 7 -10 0 -18 5 -53 35 -7 6 -64 50 -128 98 -65 48 -122 94
-129 102 -7 8 -19 15 -26 15 -8 0 -14 4 -14 8 0 5 -10 14 -23 21 -83 45 -89
173 -10 222 39 24 39 24 485 31 109 2 198 7 198 11 0 4 8 3 19 -2 10 -6 20 -8
23 -6 3 3 137 8 299 11 459 9 478 9 482 14 5 6 38 97 41 113 3 11 7 22 24 67
3 8 6 18 7 23 2 4 3 8 5 10 1 1 3 11 5 22 2 10 8 28 14 40 9 18 57 152 59 165
0 3 5 16 10 30 19 51 74 205 75 215 2 6 8 24 14 40 21 57 26 70 29 80 1 6 30
89 64 185 33 96 75 216 92 265 39 114 51 138 85 163 37 27 108 24 150 -6z"/>
</g>
</svg>
