<?xml version="1.0" standalone="no"?>
<!DOCTYPE svg PUBLIC "-//W3C//DTD SVG 20010904//EN"
 "http://www.w3.org/TR/2001/REC-SVG-20010904/DTD/svg10.dtd">
<svg version="1.0" xmlns="http://www.w3.org/2000/svg"
 width="1024.000000pt" height="1024.000000pt" viewBox="0 0 1024.000000 1024.000000"
 preserveAspectRatio="xMidYMid meet">
<metadata>
Created by potrace 1.11, written by Peter Selinger 2001-2013
</metadata>
<g transform="translate(0.000000,1024.000000) scale(0.100000,-0.100000)"
fill="#000000" stroke="none">
<path d="M1679 10236 c-3 -3 -16 -7 -29 -9 -42 -8 -113 -39 -147 -64 -17 -12
-34 -23 -37 -23 -8 0 -57 -51 -92 -98 -43 -55 -70 -118 -84 -190 -17 -88 -9
-9487 8 -9504 6 -6 12 -19 12 -27 0 -21 38 -97 56 -111 7 -7 14 -16 14 -21 0
-29 147 -137 215 -159 22 -7 48 -16 57 -21 10 -5 1520 -8 3475 -6 l3458 2 62
25 c146 59 250 174 301 335 4 11 8 1518 9 3349 3 3328 3 3328 -17 3323 -11 -3
-22 -1 -25 4 -3 4 -16 4 -30 -1 -15 -6 -27 -6 -30 0 -3 5 -15 6 -28 1 -12 -5
-34 -5 -49 0 -16 4 -28 4 -28 -1 0 -6 -10 -6 -25 0 -15 6 -26 6 -30 -1 -4 -5
-11 -6 -17 -3 -14 9 -124 8 -138 -1 -5 -3 -10 -3 -10 2 0 4 -25 8 -55 8 -30 0
-55 -3 -55 -7 0 -4 -13 -3 -29 2 -16 4 -32 6 -35 3 -7 -7 -76 -10 -76 -3 0 3
-38 5 -85 5 -47 0 -85 -3 -85 -7 0 -4 -6 -5 -12 -3 -23 9 -109 11 -114 3 -3
-5 -13 -4 -23 1 -10 6 -23 6 -31 1 -8 -5 -21 -5 -30 0 -9 5 -22 5 -30 0 -7 -4
-18 -6 -24 -4 -21 8 -107 10 -112 2 -3 -4 -14 -4 -26 1 -12 4 -37 5 -55 1 -18
-5 -33 -4 -33 0 0 5 -13 5 -30 0 -16 -5 -30 -6 -30 -2 0 4 -38 7 -85 7 -47 0
-85 -2 -85 -5 0 -3 -16 -5 -35 -5 -19 0 -35 2 -35 5 0 3 -38 5 -85 5 -47 0
-85 -3 -85 -7 0 -4 -6 -5 -12 -3 -23 9 -108 11 -108 3 0 -4 -11 -3 -25 2 -14
5 -27 5 -30 0 -3 -5 -18 -5 -35 0 -18 5 -30 5 -30 0 0 -6 -10 -6 -25 0 -15 6
-27 6 -30 0 -3 -6 -15 -6 -30 0 -15 6 -27 6 -30 0 -4 -6 -13 -7 -24 -1 -9 5
-23 6 -30 1 -8 -4 -27 -4 -42 0 -17 5 -29 5 -29 0 0 -6 -10 -6 -25 0 -15 6
-26 6 -30 -1 -4 -5 -11 -6 -17 -3 -14 9 -113 8 -127 0 -5 -4 -12 -3 -15 2 -3
4 -30 5 -60 2 -31 -3 -56 -3 -56 1 0 4 -13 4 -30 -1 -16 -5 -30 -6 -30 -2 0 4
-33 8 -73 8 -221 5 -434 209 -440 421 -1 29 -5 53 -9 53 -4 0 -3 14 2 30 5 19
5 30 -1 30 -6 0 -7 5 -4 10 9 14 10 118 2 126 -3 4 -2 14 3 23 5 10 5 23 0 31
-5 8 -5 21 0 30 5 9 5 22 0 30 -5 8 -5 21 0 30 5 9 5 22 0 30 -5 8 -5 21 0 30
5 9 5 22 0 30 -5 8 -5 21 0 30 5 9 5 22 0 30 -5 8 -5 21 0 30 5 9 5 22 0 30
-5 8 -5 21 0 30 5 9 5 22 0 29 -4 8 -4 27 0 42 5 16 5 29 0 29 -5 0 -5 13 0
30 5 17 6 30 2 30 -4 0 -7 23 -7 50 0 28 3 50 7 50 4 0 4 10 -1 23 -5 13 -5
30 -1 38 5 8 5 21 0 29 -4 7 -4 24 0 36 6 14 5 26 0 29 -5 3 -6 15 -1 28 5 13
5 30 1 38 -5 8 -5 21 0 28 4 8 4 27 0 42 -5 17 -5 29 0 29 6 0 6 9 1 23 -5 13
-5 30 -1 38 5 8 5 21 0 29 -4 7 -4 24 0 36 6 14 5 26 0 29 -5 3 -6 15 0 29 4
12 4 29 0 36 -5 8 -6 18 -3 23 8 13 9 77 1 90 -3 6 -2 19 3 28 6 11 5 20 -1
24 -5 3 -6 15 -1 28 5 12 5 34 0 49 -4 16 -4 28 1 28 5 0 5 13 0 30 -5 17 -5
30 0 30 5 0 5 13 0 28 -4 16 -4 35 1 43 4 8 4 21 -1 29 -5 8 -5 21 0 30 5 9 5
22 0 30 -5 8 -5 21 0 30 5 9 5 22 0 30 -5 8 -5 21 0 30 5 9 5 22 0 29 -4 8 -4
27 0 42 5 16 5 29 0 29 -5 0 -5 13 0 30 5 17 5 30 0 30 -5 0 -5 13 0 30 5 17
5 30 0 30 -5 0 -5 13 0 30 5 17 5 30 0 30 -5 0 -5 13 0 30 5 17 5 30 0 30 -5
0 -5 13 0 30 5 17 5 30 0 30 -5 0 -5 13 0 30 5 17 5 30 0 30 -5 0 -5 13 0 30
5 17 5 30 0 30 -5 0 -5 13 0 30 5 17 5 30 0 30 -5 0 -5 13 0 30 5 17 5 30 0
30 -5 0 -5 13 0 30 5 17 5 30 1 30 -4 0 -6 14 -3 30 l4 30 -2039 0 c-1122 0
-2042 -2 -2044 -4z m1831 -4478 c0 -4 12 -3 28 1 15 5 36 5 47 1 11 -4 24 -5
29 -2 14 8 86 8 86 -1 0 -5 5 -5 10 -2 9 6 242 10 265 5 6 -1 15 -1 20 0 6 1
28 1 50 1 46 -2 36 -2 175 0 58 1 110 0 115 -1 6 -1 13 -2 18 0 4 1 63 1 132
1 69 0 128 0 133 -1 4 -2 11 -2 17 0 30 6 95 4 95 -3 0 -5 5 -5 11 -2 10 7
112 10 134 5 6 -1 12 -2 15 -1 14 6 90 5 90 0 0 -4 15 -3 33 0 17 4 50 4 72 1
22 -3 51 -3 65 0 14 4 37 3 52 -1 14 -4 29 -5 32 -2 7 7 95 8 102 0 3 -3 17
-2 32 2 15 4 38 5 52 1 14 -4 36 -4 50 0 14 4 37 3 52 -1 14 -4 29 -5 32 -2 7
8 95 7 102 0 3 -3 12 -3 19 -1 22 9 195 9 195 1 0 -5 4 -5 10 -2 9 6 94 9 115
5 6 -1 15 -1 20 0 12 2 206 2 220 0 6 -1 15 -1 20 0 12 2 206 2 220 0 6 -1 15
-1 20 0 23 5 216 3 221 -3 3 -3 18 -1 34 3 16 4 30 6 32 4 3 -2 23 -6 45 -9
68 -8 163 -62 163 -92 0 -7 3 -13 8 -13 24 0 42 -92 42 -215 0 -142 -15 -188
-81 -249 -34 -32 -119 -75 -119 -60 0 2 -9 0 -19 -6 -13 -6 -22 -7 -26 0 -3 6
-15 6 -30 0 -15 -6 -27 -6 -30 0 -3 6 -15 6 -30 0 -15 -6 -25 -6 -25 0 0 5
-12 5 -30 0 -16 -5 -30 -5 -30 0 0 4 -12 5 -27 1 -16 -4 -40 -4 -55 0 -16 4
-28 4 -28 -1 0 -5 -13 -5 -30 0 -18 5 -30 5 -30 0 0 -6 -10 -6 -25 0 -15 6
-26 6 -30 -1 -4 -6 -13 -6 -23 0 -10 6 -23 6 -34 0 -10 -6 -19 -5 -23 1 -4 6
-15 6 -30 0 -16 -6 -25 -6 -25 0 0 5 -6 7 -14 4 -21 -8 -106 -10 -106 -2 0 3
-12 3 -27 -1 -16 -4 -40 -4 -55 0 -16 4 -28 4 -28 -1 0 -6 -10 -6 -25 0 -15 6
-26 6 -30 -1 -4 -6 -13 -6 -23 0 -9 5 -23 6 -32 1 -9 -5 -22 -5 -30 0 -8 5
-21 5 -31 -1 -11 -6 -20 -5 -24 1 -4 6 -15 6 -30 0 -16 -6 -25 -6 -25 0 0 5
-6 7 -14 4 -21 -8 -106 -10 -106 -2 0 3 -12 3 -27 -1 -16 -4 -40 -4 -55 0 -16
4 -28 4 -28 -1 0 -6 -10 -6 -25 0 -15 6 -26 6 -30 -1 -4 -6 -13 -6 -23 0 -9 5
-26 5 -39 0 -13 -5 -25 -4 -28 1 -3 6 -15 6 -30 0 -14 -5 -25 -6 -25 -1 0 5
-12 6 -27 2 -16 -4 -40 -4 -55 0 -16 4 -28 4 -28 -1 0 -4 -16 -4 -35 0 -19 4
-35 4 -35 -1 0 -5 -12 -4 -27 2 -16 6 -28 11 -28 11 0 1 -10 -4 -22 -10 -14
-8 -24 -9 -28 -2 -4 6 -11 8 -17 4 -13 -8 -133 -8 -147 0 -6 4 -11 3 -11 -3 0
-7 -8 -7 -25 -1 -15 6 -25 6 -25 0 0 -5 -12 -5 -28 0 -16 4 -36 4 -45 -1 -10
-6 -18 -5 -22 1 -4 6 -11 8 -17 4 -13 -8 -133 -8 -147 0 -6 4 -11 3 -11 -3 0
-7 -8 -7 -25 -1 -15 6 -25 6 -25 0 0 -5 -12 -5 -28 0 -16 4 -36 4 -45 -1 -10
-6 -18 -5 -22 1 -4 6 -11 8 -17 4 -13 -8 -133 -8 -147 0 -6 4 -11 3 -11 -3 0
-7 -8 -7 -25 -1 -15 6 -25 6 -25 0 0 -5 -12 -5 -28 0 -16 4 -36 4 -45 -1 -10
-6 -18 -5 -22 1 -4 6 -11 8 -17 4 -13 -8 -133 -8 -147 0 -6 4 -11 3 -11 -3 0
-7 -8 -7 -25 -1 -15 6 -25 6 -25 0 0 -5 -12 -5 -28 0 -16 4 -36 4 -45 -1 -10
-6 -18 -5 -22 1 -4 6 -11 8 -17 4 -13 -8 -133 -8 -147 0 -6 4 -11 3 -11 -3 0
-7 -8 -7 -25 -1 -16 6 -25 6 -25 0 0 -6 -9 -6 -22 -1 -13 5 -33 5 -45 0 -13
-5 -23 -5 -23 -1 0 4 -22 7 -49 8 -57 0 -104 21 -147 63 -49 48 -68 96 -71
181 -1 41 -3 77 -4 80 -2 10 2 85 7 114 7 41 29 88 51 111 31 31 73 65 73 60
0 -3 12 1 28 8 15 8 37 13 50 12 13 -1 24 1 26 4 6 8 76 7 76 -1z m4 -1281 c8
8 136 9 136 1 0 -4 12 -3 28 1 15 5 37 5 48 1 11 -5 27 -5 34 0 7 4 25 4 41 0
15 -5 30 -6 32 -3 8 7 157 9 157 1 0 -4 13 -3 30 2 17 5 32 5 35 0 3 -5 15 -6
28 -1 12 5 32 5 44 0 12 -4 25 -4 28 1 3 5 18 5 35 0 17 -5 30 -6 30 -2 0 8
68 8 76 -1 3 -3 18 -2 33 3 16 4 34 4 41 0 7 -4 26 -4 41 0 16 5 31 5 34 0 3
-5 18 -5 33 -1 15 5 36 5 47 1 11 -4 24 -5 29 -2 13 7 136 8 136 0 0 -4 12 -3
28 1 15 5 36 5 47 1 11 -4 24 -5 29 -2 13 7 136 8 136 0 0 -4 12 -3 28 1 15 5
37 5 48 1 11 -5 27 -5 34 0 7 4 24 5 39 1 14 -4 35 -6 46 -5 23 3 63 4 88 4 9
0 28 0 42 0 14 0 32 0 40 0 8 0 26 0 40 0 26 0 45 0 70 0 8 1 31 1 50 1 19 0
42 0 50 -1 25 0 44 0 70 0 14 0 32 0 40 0 8 0 26 0 40 0 50 0 61 0 117 1 31 0
61 -2 67 -5 5 -4 12 -2 15 3 4 6 18 6 36 1 17 -5 30 -6 30 -2 0 8 128 7 136
-1 3 -3 16 -2 28 3 13 4 29 4 36 0 8 -5 18 -6 23 -3 12 7 146 8 153 0 3 -3 16
-2 28 3 13 4 29 4 36 0 8 -5 18 -6 23 -3 12 7 146 8 153 1 3 -4 19 -2 35 2 16
5 31 5 34 1 2 -5 23 -5 45 -1 22 4 43 4 45 -1 3 -4 18 -4 34 1 16 4 32 6 34 3
3 -2 27 -6 54 -8 26 -1 62 -9 78 -16 44 -20 95 -61 95 -76 0 -7 3 -13 8 -13
11 0 31 -50 37 -95 6 -48 7 -176 1 -226 -11 -100 -98 -189 -201 -205 -32 -6
-39 -6 -70 -4 -11 1 -54 1 -95 1 -41 0 -99 0 -128 1 -29 1 -55 -1 -58 -4 -3
-3 -17 -3 -32 1 -15 4 -44 4 -64 1 -21 -4 -40 -5 -42 -2 -7 7 -95 6 -102 -1
-3 -3 -17 -2 -32 2 -15 4 -44 4 -64 1 -21 -4 -40 -5 -42 -2 -7 7 -95 6 -102
-1 -3 -3 -17 -2 -32 2 -15 4 -44 4 -64 1 -21 -4 -40 -5 -42 -2 -7 7 -95 6
-102 -1 -3 -3 -17 -2 -32 2 -15 4 -44 4 -64 1 -21 -4 -40 -5 -42 -2 -7 7 -95
6 -102 -1 -3 -3 -17 -2 -32 2 -15 4 -44 4 -64 1 -21 -4 -40 -5 -43 -2 -5 5
-107 6 -131 1 -5 -1 -13 -1 -19 1 -11 2 -55 2 -215 0 -58 -1 -108 -1 -112 0
-22 4 -99 2 -104 -3 -3 -3 -17 -2 -32 2 -15 4 -44 4 -64 1 -21 -4 -40 -5 -42
-2 -7 7 -95 6 -102 -1 -3 -3 -17 -2 -32 2 -15 4 -44 4 -64 1 -21 -4 -40 -5
-42 -2 -7 7 -95 6 -102 -1 -3 -3 -17 -2 -32 2 -15 4 -44 4 -64 1 -21 -4 -40
-5 -42 -2 -7 7 -95 6 -102 -1 -3 -3 -17 -2 -32 2 -15 4 -44 4 -64 1 -21 -4
-40 -5 -43 -2 -3 3 -33 4 -68 3 -34 -1 -68 -2 -74 -2 -24 1 -113 1 -125 0 -7
-1 -26 0 -43 1 -16 1 -57 1 -90 1 -107 -2 -169 5 -207 23 -68 33 -122 102
-132 171 -8 49 -8 185 -1 240 15 105 101 190 204 201 24 2 46 6 49 8 2 3 14 1
27 -4 13 -5 26 -6 29 -3z m-39 -1277 c4 6 15 6 30 0 14 -5 25 -6 25 -2 0 4 38
7 85 7 47 0 85 -3 85 -7 0 -4 11 -3 25 2 15 6 26 6 30 0 4 -6 13 -7 24 -1 9 5
23 6 31 1 7 -4 24 -4 36 0 14 6 26 5 29 -1 4 -6 13 -6 23 0 10 6 23 6 34 0 10
-6 19 -5 23 1 4 6 15 6 30 0 14 -5 25 -6 25 -2 0 4 38 7 85 7 47 0 85 -3 85
-7 0 -4 11 -3 25 2 15 6 26 6 30 -1 4 -6 13 -6 23 0 10 6 23 6 34 0 10 -6 19
-5 23 1 4 6 15 6 30 0 14 -5 25 -6 25 -2 0 8 100 5 108 -3 2 -2 15 0 28 5 14
6 26 6 29 -1 4 -6 13 -6 23 0 9 5 26 5 39 0 13 -5 23 -5 23 -1 0 4 27 7 60 7
33 0 60 -3 60 -7 0 -4 11 -3 25 2 15 6 27 6 30 0 3 -6 15 -6 30 0 15 6 27 6
30 -1 4 -6 13 -6 23 0 9 5 26 5 39 0 13 -5 23 -5 23 -1 0 4 27 7 60 7 33 0 60
-4 60 -8 0 -5 5 -5 11 -1 15 9 169 11 169 2 0 -4 6 -5 13 -3 22 9 107 11 107
3 0 -4 11 -3 25 2 15 6 26 6 30 -1 4 -6 13 -6 23 0 10 6 23 6 34 0 10 -6 19
-5 23 1 3 6 15 6 30 0 15 -6 27 -6 30 0 3 6 15 6 30 0 14 -5 25 -6 25 -2 0 4
25 7 55 7 30 0 55 -3 55 -6 0 -4 16 -3 35 1 19 4 35 4 35 -1 0 -4 10 -5 23 0
12 5 32 5 45 0 12 -5 22 -5 22 -1 0 8 108 8 116 -1 3 -3 17 -2 30 3 14 6 26 6
29 -1 4 -6 13 -6 23 0 10 6 23 6 34 0 10 -6 19 -5 23 1 4 6 15 6 30 0 14 -5
25 -6 25 -2 0 4 25 7 55 7 30 0 55 -3 55 -7 0 -4 11 -3 25 2 15 6 27 6 30 0 3
-5 12 -7 20 -4 21 8 145 10 145 2 0 -4 14 -3 30 2 18 5 30 5 30 0 0 -6 10 -6
25 0 15 6 26 6 30 -1 4 -6 13 -6 23 0 10 6 23 6 34 0 10 -6 19 -5 23 1 4 6 15
6 30 0 16 -6 25 -6 25 0 0 5 6 7 14 4 8 -3 27 -7 43 -8 40 -3 103 -26 103 -37
0 -5 6 -9 13 -9 19 0 63 -61 80 -111 8 -24 14 -68 14 -97 -1 -28 1 -52 5 -52
3 0 5 -8 3 -17 -2 -10 -6 -47 -9 -83 -2 -36 -11 -77 -18 -91 -37 -70 -113
-127 -181 -135 -46 -6 -108 -6 -114 -1 -2 3 -18 1 -34 -3 -16 -5 -29 -5 -29 0
0 4 -16 4 -35 0 -19 -4 -35 -4 -35 0 0 4 -17 4 -37 1 -21 -4 -53 -4 -70 0 -18
3 -33 3 -33 -1 0 -5 -12 -5 -27 -1 -16 4 -40 4 -55 0 -16 -4 -28 -4 -28 1 0 4
-16 4 -35 0 -19 -4 -35 -4 -35 0 0 4 -17 4 -37 1 -21 -4 -53 -4 -70 0 -18 3
-33 3 -33 -1 0 -5 -12 -5 -27 -1 -16 4 -40 4 -55 0 -16 -4 -28 -4 -28 1 0 4
-16 4 -35 0 -19 -4 -35 -4 -35 0 0 4 -17 4 -37 1 -21 -4 -53 -4 -70 0 -18 3
-33 3 -33 -1 0 -5 -12 -5 -27 -1 -16 4 -40 4 -55 0 -16 -4 -28 -4 -28 1 0 4
-16 4 -35 0 -19 -4 -35 -4 -35 0 0 4 -17 4 -37 1 -21 -4 -53 -4 -70 0 -18 3
-33 3 -33 -1 0 -5 -12 -5 -27 -1 -16 4 -40 4 -55 0 -16 -4 -28 -4 -28 1 0 4
-16 4 -35 0 -19 -4 -35 -4 -35 0 0 4 -17 4 -37 1 -21 -4 -53 -4 -70 0 -18 3
-33 4 -33 0 0 -3 -26 -5 -57 -3 -32 1 -64 3 -70 2 -7 0 -20 0 -28 0 -8 0 -22
0 -30 0 -8 0 -22 0 -30 0 -8 0 -22 0 -30 0 -8 0 -22 0 -30 0 -8 0 -22 0 -30 0
-8 0 -22 0 -30 0 -8 0 -22 0 -30 0 -8 0 -22 0 -30 0 -8 0 -22 0 -30 0 -8 0
-22 0 -30 0 -8 0 -22 0 -30 0 -8 0 -22 0 -30 0 -8 0 -22 0 -30 0 -8 0 -22 0
-30 0 -8 0 -22 0 -30 0 -8 0 -22 0 -30 0 -8 0 -22 0 -30 0 -8 0 -22 0 -30 0
-8 0 -22 0 -30 0 -8 0 -22 0 -30 0 -8 0 -22 0 -30 0 -8 0 -22 0 -30 0 -8 0
-22 0 -30 0 -8 0 -22 0 -30 0 -8 0 -22 0 -30 0 -8 0 -22 0 -30 0 -8 0 -22 0
-30 0 -8 0 -22 0 -30 0 -8 0 -22 0 -30 0 -8 0 -22 0 -30 0 -8 0 -22 0 -30 0
-8 0 -22 0 -30 0 -8 0 -22 0 -30 0 -8 0 -22 0 -30 0 -8 0 -22 0 -30 0 -8 0
-22 0 -30 0 -8 0 -22 0 -30 0 -8 0 -22 0 -30 0 -8 0 -22 0 -30 0 -8 0 -22 0
-30 0 -8 0 -22 0 -30 0 -8 0 -22 0 -30 0 -8 0 -22 0 -30 0 -8 0 -22 0 -30 0
-8 0 -22 0 -30 0 -8 0 -22 0 -30 0 -8 0 -22 0 -30 0 -8 0 -21 0 -27 0 -7 0
-31 0 -53 1 -22 0 -44 0 -50 -1 -5 -1 -14 -2 -18 -1 -4 1 -25 3 -46 6 -21 3
-52 11 -68 17 -36 16 -93 63 -93 77 0 6 -3 11 -8 11 -12 0 -31 51 -37 100 -6
49 -7 127 -2 205 7 110 86 200 192 219 15 3 30 7 33 10 2 3 13 1 23 -4 11 -7
20 -7 24 0z"/>
<path d="M6403 10221 c3 -11 1 -21 -4 -21 -5 0 -5 -10 0 -23 5 -13 5 -30 1
-37 -5 -8 -5 -21 0 -29 4 -8 4 -25 -1 -38 -5 -13 -4 -25 1 -28 5 -3 6 -15 1
-28 -5 -13 -5 -30 -1 -38 5 -8 5 -21 0 -28 -4 -8 -4 -27 0 -42 5 -17 5 -29 0
-29 -6 0 -6 -9 -1 -23 5 -13 5 -30 1 -38 -5 -8 -5 -21 0 -29 4 -7 4 -24 0 -36
-6 -14 -5 -26 0 -29 5 -3 6 -15 1 -28 -5 -13 -5 -30 -1 -38 5 -8 5 -21 0 -28
-4 -8 -4 -27 0 -42 5 -17 5 -29 0 -29 -6 0 -6 -9 -1 -23 5 -13 5 -30 1 -38 -5
-8 -5 -21 0 -29 4 -7 4 -24 0 -36 -6 -14 -5 -26 0 -29 5 -3 6 -15 1 -28 -5
-13 -5 -30 -1 -38 5 -8 5 -21 0 -28 -4 -8 -4 -27 0 -42 5 -17 5 -29 0 -29 -6
0 -6 -9 -1 -23 5 -13 5 -30 1 -38 -5 -8 -5 -21 0 -29 4 -7 4 -24 0 -36 -6 -14
-5 -26 0 -29 5 -3 6 -15 0 -29 -4 -12 -5 -29 0 -36 4 -7 5 -20 2 -29 -3 -9 -5
-31 -4 -51 1 -19 2 -41 2 -47 0 -7 0 -20 0 -28 0 -8 0 -22 0 -30 0 -8 0 -22 0
-30 0 -8 0 -22 0 -30 0 -8 0 -22 0 -30 0 -8 0 -22 0 -30 0 -8 0 -22 0 -30 0
-8 0 -22 0 -30 0 -8 0 -22 0 -30 0 -8 0 -22 0 -30 0 -8 0 -22 0 -30 0 -8 0
-22 0 -30 0 -8 0 -22 0 -30 0 -8 0 -22 0 -30 0 -8 0 -22 0 -30 0 -8 0 -22 0
-30 0 -8 0 -22 0 -30 0 -8 0 -22 0 -30 0 -8 0 -22 0 -30 0 -8 0 -22 0 -30 0
-8 0 -22 0 -30 0 -8 0 -22 0 -30 0 -8 0 -22 0 -30 0 -8 0 -22 0 -30 0 -8 0
-22 0 -30 0 -8 0 -22 0 -30 0 -8 0 -22 0 -30 0 -8 0 -22 0 -30 0 -8 0 -22 0
-30 0 -8 0 -22 0 -30 0 -8 0 -22 0 -30 0 -8 0 -22 0 -30 0 -8 0 -22 0 -30 0
-8 0 -22 0 -30 0 -8 0 -22 0 -30 0 -8 0 -22 0 -30 0 -8 0 -22 0 -30 0 -8 0
-22 0 -30 0 -88 -1 -84 29 -75 16 4 34 4 42 0 7 -5 20 -5 28 -1 8 5 27 5 43 1
15 -5 28 -6 28 -2 0 4 16 7 35 7 19 0 35 -3 35 -7 0 -4 10 -4 23 1 12 5 31 5
42 1 11 -4 29 -4 40 0 11 4 29 4 41 0 11 -5 27 -5 34 0 7 4 26 4 41 0 16 -5
29 -6 29 -2 0 4 16 7 35 7 19 0 35 -3 35 -7 0 -4 10 -4 23 1 12 5 31 5 42 1
11 -4 29 -4 40 0 11 4 29 4 41 0 11 -5 27 -5 34 0 7 4 26 4 41 0 16 -5 29 -6
29 -2 0 4 16 7 35 7 19 0 35 -3 35 -7 0 -4 10 -4 23 1 12 5 31 5 42 1 11 -4
29 -4 40 0 11 4 29 4 41 0 11 -5 27 -5 34 0 7 4 26 4 41 0 16 -5 29 -6 29 -2
0 4 16 7 35 7 19 0 35 -4 35 -8 0 -5 5 -5 11 -2 10 6 130 10 154 5 6 -1 15 -1
20 0 6 1 28 1 50 1 22 0 59 -1 83 0 23 0 49 0 57 -1 33 -1 42 0 81 2 22 1 44
-1 50 -4 5 -3 18 -2 29 2 11 4 32 4 48 -1 15 -4 27 -5 27 -1 0 8 68 7 76 -1 3
-3 16 -2 28 2 11 4 35 5 51 1 17 -3 44 -3 61 1 18 3 38 3 45 -1 7 -5 19 -6 27
-2 19 7 76 7 88 0 5 -3 18 -2 29 2 11 4 32 4 48 -1 15 -4 27 -5 27 -1 0 8 68
8 75 0 3 -3 23 -2 45 2 21 4 44 4 51 -1 7 -4 18 -5 23 -1 6 3 26 5 44 3 l35
-2 -6 121 c-2 66 -9 126 -15 133 -6 6 -11 15 -11 20 -2 25 -15 57 -22 57 -5 0
-9 7 -9 16 0 9 -15 35 -32 58 -57 71 -2031 2041 -2079 2074 -81 55 -142 73
-273 79 -118 6 -119 6 -113 -16z"/>
</g>
</svg>
